<?xml version="1.0" standalone="no"?>
<!DOCTYPE svg PUBLIC "-//W3C//DTD SVG 20010904//EN"
 "http://www.w3.org/TR/2001/REC-SVG-20010904/DTD/svg10.dtd">
<svg version="1.0" xmlns="http://www.w3.org/2000/svg"
 width="700.000000pt" height="700.000000pt" viewBox="0 0 700.000000 700.000000"
 preserveAspectRatio="xMidYMid meet">
<metadata>
Created by potrace 1.11, written by Peter Selinger 2001-2013
</metadata>
<g transform="translate(0.000000,700.000000) scale(0.100000,-0.100000)"
fill="#000000" stroke="none">
<path d="M3533 5696 c-71 -32 -85 -93 -72 -311 8 -138 69 -1425 69 -1461 0 -9
-21 -11 -93 -7 -112 7 -205 -8 -305 -48 -198 -79 -387 -258 -476 -450 -99
-214 -112 -504 -35 -731 68 -197 192 -354 339 -426 47 -23 67 -27 135 -26 197
2 404 147 512 359 28 55 58 122 68 148 l18 49 52 -149 c84 -240 132 -329 235
-435 52 -54 59 -58 102 -58 39 0 50 5 72 31 40 47 35 86 -30 213 -158 308
-210 541 -274 1221 -39 423 -47 563 -60 1055 -14 574 -39 890 -73 957 -37 71
-115 100 -184 69z m-49 -1976 c21 -4 43 -15 48 -22 14 -19 1 -443 -16 -572
-34 -245 -116 -465 -209 -565 -51 -53 -140 -91 -216 -91 -60 0 -66 2 -97 36
-49 52 -109 165 -146 274 -30 90 -32 103 -32 250 -1 145 1 160 27 235 37 105
85 181 160 257 151 150 344 230 481 198z"/>
<path d="M1400 5630 c-46 -11 -96 -69 -108 -125 -17 -82 -1 -475 59 -1395 48
-746 66 -1064 74 -1335 3 -115 12 -363 20 -550 8 -187 17 -438 21 -557 4 -126
11 -226 18 -240 6 -13 32 -33 57 -46 39 -19 76 -25 255 -38 115 -8 216 -17
224 -19 38 -11 379 -35 419 -29 91 14 136 95 89 164 -49 72 -121 92 -473 125
-93 9 -197 22 -229 29 l-59 11 -3 430 c-3 625 -22 886 -144 2015 -116 1083
-137 1309 -119 1342 10 19 18 19 312 12 385 -9 446 1 462 76 9 41 -17 86 -57
99 -18 6 -168 15 -333 21 -165 5 -334 12 -375 14 -41 2 -91 1 -110 -4z"/>
<path d="M4466 5615 c-32 -29 -36 -91 -8 -124 21 -27 134 -46 545 -95 152 -18
280 -36 283 -39 3 -3 1 -90 -5 -194 -48 -805 -40 -1638 25 -2618 16 -237 24
-317 49 -445 13 -71 71 -327 81 -361 3 -12 -19 -25 -99 -57 -172 -69 -390
-114 -800 -166 -64 -9 -126 -20 -137 -26 -51 -27 -65 -98 -30 -155 34 -55 55
-58 305 -34 341 32 674 125 910 255 114 63 129 101 96 257 -37 181 -108 948
-141 1517 -26 462 -32 836 -26 1477 8 727 9 706 -52 737 -29 14 -221 39 -442
56 -74 5 -221 17 -325 25 -105 8 -193 15 -197 15 -3 0 -17 -11 -32 -25z"/>
</g>
</svg>
